<svg xmlns="http://www.w3.org/2000/svg" width="500" height="360" viewBox="0 0 500 360">
  <defs>
    <linearGradient id="kwall" x1="0" y1="0" x2="0" y2="1">
      <stop offset="0%" stop-color="#f5f0ea"/>
      <stop offset="100%" stop-color="#e8e0d5"/>
    </linearGradient>
    <linearGradient id="kfloor" x1="0" y1="0" x2="0" y2="1">
      <stop offset="0%" stop-color="#c8c0b4"/>
      <stop offset="100%" stop-color="#b0a898"/>
    </linearGradient>
  </defs>
  <!-- Wall -->
  <rect width="500" height="360" fill="url(#kwall)"/>
  <!-- Floor (tile) -->
  <rect x="0" y="240" width="500" height="120" fill="url(#kfloor)"/>
  <!-- Tile grid -->
  <g stroke="#bbb" stroke-width="0.8">
    <line x1="0" y1="260" x2="500" y2="260"/><line x1="0" y1="280" x2="500" y2="280"/>
    <line x1="0" y1="300" x2="500" y2="300"/><line x1="0" y1="320" x2="500" y2="320"/>
    <line x1="0" y1="340" x2="500" y2="340"/>
    <line x1="50" y1="240" x2="50" y2="360"/><line x1="100" y1="240" x2="100" y2="360"/>
    <line x1="150" y1="240" x2="150" y2="360"/><line x1="200" y1="240" x2="200" y2="360"/>
    <line x1="250" y1="240" x2="250" y2="360"/><line x1="300" y1="240" x2="300" y2="360"/>
    <line x1="350" y1="240" x2="350" y2="360"/><line x1="400" y1="240" x2="400" y2="360"/>
    <line x1="450" y1="240" x2="450" y2="360"/>
  </g>
  <!-- Modern white upper cabinets -->
  <rect x="0" y="15" width="200" height="90" fill="#f8f8f6" stroke="#e0ddd8" stroke-width="1" rx="2"/>
  <rect x="5" y="19" width="92" height="82" fill="#fff" stroke="#e8e5e0" stroke-width="0.5" rx="1"/>
  <rect x="103" y="19" width="92" height="82" fill="#fff" stroke="#e8e5e0" stroke-width="0.5" rx="1"/>
  <rect x="46" y="56" width="10" height="16" fill="#c8c0b0" rx="4"/>
  <rect x="149" y="56" width="10" height="16" fill="#c8c0b0" rx="4"/>
  <rect x="300" y="15" width="200" height="90" fill="#f8f8f6" stroke="#e0ddd8" stroke-width="1" rx="2"/>
  <rect x="305" y="19" width="92" height="82" fill="#fff" stroke="#e8e5e0" stroke-width="0.5" rx="1"/>
  <rect x="403" y="19" width="92" height="82" fill="#fff" stroke="#e8e5e0" stroke-width="0.5" rx="1"/>
  <rect x="349" y="56" width="10" height="16" fill="#c8c0b0" rx="4"/>
  <rect x="447" y="56" width="10" height="16" fill="#c8c0b0" rx="4"/>
  <!-- Range hood -->
  <rect x="205" y="10" width="90" height="55" fill="#d0d0cc" rx="3"/>
  <rect x="195" y="60" width="110" height="18" fill="#c0c0bc" rx="2"/>
  <!-- Lower cabinets -->
  <rect x="0" y="148" width="180" height="92" fill="#f8f8f6" stroke="#e0ddd8" stroke-width="1" rx="2"/>
  <rect x="5" y="152" width="83" height="82" fill="#fff" stroke="#e8e5e0" stroke-width="0.5" rx="1"/>
  <rect x="93" y="152" width="82" height="82" fill="#fff" stroke="#e8e5e0" stroke-width="0.5" rx="1"/>
  <rect x="42" y="190" width="10" height="18" fill="#c8c0b0" rx="4"/>
  <rect x="130" y="190" width="10" height="18" fill="#c8c0b0" rx="4"/>
  <!-- Stove/range -->
  <rect x="180" y="148" width="140" height="92" fill="#2a2a2a" rx="2"/>
  <rect x="183" y="151" width="134" height="60" fill="#1a1a1a" rx="2"/>
  <rect x="183" y="175" width="134" height="30" fill="rgba(200,220,255,0.08)" rx="1"/>
  <circle cx="210" cy="165" r="14" fill="#222" stroke="#444" stroke-width="1.5"/>
  <circle cx="250" cy="165" r="14" fill="#222" stroke="#444" stroke-width="1.5"/>
  <circle cx="290" cy="165" r="14" fill="#222" stroke="#444" stroke-width="1.5"/>
  <circle cx="295" cy="155" r="8" fill="#333"/>
  <!-- Toaster oven (appliance of origin) -->
  <rect x="330" y="155" width="60" height="35" fill="#c0b8a8" rx="3" stroke="#a8a098" stroke-width="1"/>
  <rect x="333" y="158" width="54" height="24" fill="#303030" rx="1"/>
  <circle cx="375" cy="180" r="5" fill="#888"/>
  <!-- Right lower cabinets -->
  <rect x="320" y="148" width="180" height="92" fill="#f8f8f6" stroke="#e0ddd8" stroke-width="1" rx="2"/>
  <rect x="325" y="152" width="82" height="82" fill="#fff" stroke="#e8e5e0" stroke-width="0.5" rx="1"/>
  <rect x="413" y="152" width="82" height="82" fill="#fff" stroke="#e8e5e0" stroke-width="0.5" rx="1"/>
  <rect x="362" y="190" width="10" height="18" fill="#c8c0b0" rx="4"/>
  <rect x="451" y="190" width="10" height="18" fill="#c8c0b0" rx="4"/>
  <!-- Countertop -->
  <rect x="0" y="140" width="500" height="12" fill="#f0ece4" rx="1"/>
  <rect x="0" y="137" width="500" height="5" fill="#fff"/>
  <!-- Backsplash -->
  <rect x="0" y="90" width="180" height="50" fill="#e8e4dc"/>
  <rect x="320" y="90" width="180" height="50" fill="#e8e4dc"/>
  <g stroke="#d8d4cc" stroke-width="0.5">
    <line x1="0" y1="100" x2="180" y2="100"/><line x1="0" y1="112" x2="180" y2="112"/>
    <line x1="0" y1="124" x2="180" y2="124"/>
    <line x1="20" y1="90" x2="20" y2="140"/><line x1="40" y1="90" x2="40" y2="140"/>
    <line x1="60" y1="90" x2="60" y2="140"/><line x1="80" y1="90" x2="80" y2="140"/>
    <line x1="100" y1="90" x2="100" y2="140"/><line x1="120" y1="90" x2="120" y2="140"/>
    <line x1="140" y1="90" x2="140" y2="140"/><line x1="160" y1="90" x2="160" y2="140"/>
    <line x1="320" y1="100" x2="500" y2="100"/><line x1="320" y1="112" x2="500" y2="112"/>
    <line x1="320" y1="124" x2="500" y2="124"/>
    <line x1="340" y1="90" x2="340" y2="140"/><line x1="360" y1="90" x2="360" y2="140"/>
    <line x1="380" y1="90" x2="380" y2="140"/><line x1="400" y1="90" x2="400" y2="140"/>
    <line x1="420" y1="90" x2="420" y2="140"/><line x1="440" y1="90" x2="440" y2="140"/>
    <line x1="460" y1="90" x2="460" y2="140"/><line x1="480" y1="90" x2="480" y2="140"/>
  </g>
  <!-- Label -->
  <rect x="0" y="0" width="500" height="18" fill="rgba(0,0,0,0.55)"/>
  <text x="250" y="13" fill="#fff" font-family="Arial" font-size="11" text-anchor="middle" font-weight="bold">PRE-FIRE — Modern Kitchen in Excellent Condition — March 8, 2026</text>
</svg>
